<?xml version="1.0" standalone="no"?>
<!DOCTYPE svg PUBLIC "-//W3C//DTD SVG 20010904//EN"
 "http://www.w3.org/TR/2001/REC-SVG-20010904/DTD/svg10.dtd">
<svg version="1.0" xmlns="http://www.w3.org/2000/svg"
 width="214.000000pt" height="212.000000pt" viewBox="0 0 214.000000 212.000000"
 preserveAspectRatio="xMidYMid meet">

<g transform="translate(0.000000,212.000000) scale(0.100000,-0.100000)"
fill="#66e5bc" stroke="none">
<path d="M425 2012 c-76 -167 -197 -315 -342 -419 l-63 -45 0 -184 c0 -101 2
-184 5 -184 2 0 39 21 82 46 248 146 434 344 553 589 46 95 110 258 110 281 0
2 -69 4 -152 4 l-153 0 -40 -88z"/>
<path d="M960 1890 l0 -150 520 0 520 0 0 150 0 150 -520 0 -520 0 0 -150z"/>
<path d="M468 1412 c-20 -42 -56 -106 -79 -142 -56 -85 -205 -233 -296 -293
l-73 -47 0 -185 c0 -102 2 -185 4 -185 8 0 146 79 196 113 l55 37 3 -350 2
-350 155 0 155 0 0 500 0 499 44 63 c57 81 126 220 165 331 l30 87 -162 0
-162 0 -37 -78z"/>
<path d="M877 1433 c-4 -3 -7 -73 -7 -155 l0 -148 330 0 330 0 0 -405 0 -404
-137 -3 -138 -3 0 -150 0 -150 293 -3 292 -2 0 560 0 560 150 0 150 0 0 155 0
155 -628 0 c-346 0 -632 -3 -635 -7z"/>
</g>
</svg>
